# MagicaVoxel @ Ephtracy

# group
o 

# material
mtllib Laptop.mtl
usemtl palette

# normals
vn -1 0 0
vn 1 0 0
vn 0 0 1
vn 0 0 -1
vn 0 -1 0
vn 0 1 0

# texcoords
vt 0.208984 0.5
vt 0.798828 0.5
vt 0.841797 0.5
vt 0.888672 0.5
vt 0.978516 0.5
vt 0.982422 0.5
vt 0.994141 0.5

# verts
v -0.5 0.2 0.4
v -0.5 0.2 -0.5
v -0.5 0.4 0.4
v -0.5 0.4 -0.3
v -0.5 1.1 -0.3
v -0.5 1.1 -0.5
v -0.4 0.5 -0.5
v -0.4 0.5 -0.6
v -0.4 1 -0.5
v -0.4 1 -0.6
v 0.3 0.5 -0.3
v 0.3 0.5 -0.4
v 0.3 1 -0.3
v 0.3 1 -0.4
v -0.4 0.5 -0.3
v -0.4 0.5 -0.4
v -0.4 1 -0.3
v -0.4 1 -0.4
v 0.3 0.5 -0.5
v 0.3 0.5 -0.6
v 0.3 1 -0.5
v 0.3 1 -0.6
v 0.4 0.2 0.4
v 0.4 0.2 -0.5
v 0.4 0.4 0.4
v 0.4 0.4 -0.3
v 0.4 1.1 -0.3
v 0.4 1.1 -0.5
v -0.5 0.2 0.4
v -0.5 0.4 0.4
v 0.4 0.2 0.4
v 0.4 0.4 0.4
v -0.5 0.4 -0.3
v -0.5 1.1 -0.3
v -0.4 0.5 -0.3
v -0.4 1 -0.3
v 0.3 0.5 -0.3
v 0.3 1 -0.3
v 0.4 0.4 -0.3
v 0.4 1.1 -0.3
v -0.4 0.5 -0.4
v -0.4 1 -0.4
v 0 0.7 -0.4
v 0 0.8 -0.4
v 0 0.9 -0.4
v 0.1 0.7 -0.4
v 0.1 0.8 -0.4
v 0.1 0.9 -0.4
v 0.2 0.7 -0.4
v 0.2 0.8 -0.4
v 0.2 0.9 -0.4
v 0.3 0.5 -0.4
v 0.3 1 -0.4
v -0.5 0.2 -0.5
v -0.5 1.1 -0.5
v -0.4 0.5 -0.5
v -0.4 1 -0.5
v 0.3 0.5 -0.5
v 0.3 1 -0.5
v 0.4 0.2 -0.5
v 0.4 1.1 -0.5
v -0.4 0.5 -0.6
v -0.4 1 -0.6
v 0.3 0.5 -0.6
v 0.3 1 -0.6
v -0.5 0.2 0.4
v 0.4 0.2 0.4
v -0.5 0.2 -0.5
v 0.4 0.2 -0.5
v -0.4 0.5 -0.5
v 0.3 0.5 -0.5
v -0.4 0.5 -0.6
v 0.3 0.5 -0.6
v -0.4 1 -0.3
v 0.3 1 -0.3
v -0.4 1 -0.4
v 0.3 1 -0.4
v -0.5 0.4 0.4
v 0.4 0.4 0.4
v -0.4 0.4 0.3
v -0.2 0.4 0.3
v 0.1 0.4 0.3
v 0.3 0.4 0.3
v -0.2 0.4 0.1
v 0.1 0.4 0.1
v -0.4 0.4 -0.2
v 0.3 0.4 -0.2
v -0.5 0.4 -0.3
v 0.4 0.4 -0.3
v -0.4 0.5 -0.3
v 0.3 0.5 -0.3
v -0.4 0.5 -0.4
v 0.3 0.5 -0.4
v -0.4 1 -0.5
v 0.3 1 -0.5
v -0.4 1 -0.6
v 0.3 1 -0.6
v -0.5 1.1 -0.3
v 0.4 1.1 -0.3
v -0.5 1.1 -0.5
v 0.4 1.1 -0.5

# faces
f 3/5/1 2/5/1 1/5/1
f 4/5/1 2/5/1 3/5/1
f 5/5/1 2/5/1 4/5/1
f 6/5/1 2/5/1 5/5/1
f 9/5/1 8/5/1 7/5/1
f 10/5/1 8/5/1 9/5/1
f 13/5/1 12/5/1 11/5/1
f 14/5/1 12/5/1 13/5/1
f 15/5/2 16/5/2 17/5/2
f 17/5/2 16/5/2 18/5/2
f 19/5/2 20/5/2 21/5/2
f 21/5/2 20/5/2 22/5/2
f 23/5/2 24/5/2 25/5/2
f 25/5/2 24/5/2 26/5/2
f 26/5/2 24/5/2 27/5/2
f 27/5/2 24/5/2 28/5/2
f 31/5/3 30/5/3 29/5/3
f 32/5/3 30/5/3 31/5/3
f 35/5/3 34/5/3 33/5/3
f 36/5/3 34/5/3 35/5/3
f 37/5/3 35/5/3 33/5/3
f 38/5/3 34/5/3 36/5/3
f 39/5/3 37/5/3 33/5/3
f 39/5/3 38/5/3 37/5/3
f 40/5/3 34/5/3 38/5/3
f 40/5/3 38/5/3 39/5/3
f 43/7/3 42/7/3 41/7/3
f 44/7/3 42/7/3 43/7/3
f 45/7/3 42/7/3 44/7/3
f 46/7/3 43/7/3 41/7/3
f 46/2/3 44/2/3 43/2/3
f 47/3/3 45/3/3 44/3/3
f 47/2/3 44/2/3 46/2/3
f 48/7/3 42/7/3 45/7/3
f 48/3/3 45/3/3 47/3/3
f 49/1/3 47/1/3 46/1/3
f 49/7/3 46/7/3 41/7/3
f 50/4/3 48/4/3 47/4/3
f 50/1/3 47/1/3 49/1/3
f 51/7/3 42/7/3 48/7/3
f 51/4/3 48/4/3 50/4/3
f 52/7/3 50/7/3 49/7/3
f 52/7/3 49/7/3 41/7/3
f 52/7/3 51/7/3 50/7/3
f 53/7/3 42/7/3 51/7/3
f 53/7/3 51/7/3 52/7/3
f 54/5/4 55/5/4 56/5/4
f 56/5/4 55/5/4 57/5/4
f 54/5/4 56/5/4 58/5/4
f 57/5/4 55/5/4 59/5/4
f 54/5/4 58/5/4 60/5/4
f 58/5/4 59/5/4 60/5/4
f 59/5/4 55/5/4 61/5/4
f 60/5/4 59/5/4 61/5/4
f 62/5/4 63/5/4 64/5/4
f 64/5/4 63/5/4 65/5/4
f 68/5/5 67/5/5 66/5/5
f 69/5/5 67/5/5 68/5/5
f 72/5/5 71/5/5 70/5/5
f 73/5/5 71/5/5 72/5/5
f 76/5/5 75/5/5 74/5/5
f 77/5/5 75/5/5 76/5/5
f 78/5/6 79/5/6 80/5/6
f 80/5/6 79/5/6 81/5/6
f 81/5/6 79/5/6 82/5/6
f 82/5/6 79/5/6 83/5/6
f 80/6/6 81/6/6 84/6/6
f 81/5/6 82/5/6 84/5/6
f 82/6/6 83/6/6 85/6/6
f 84/5/6 82/5/6 85/5/6
f 78/5/6 80/5/6 86/5/6
f 80/6/6 84/6/6 86/6/6
f 84/6/6 85/6/6 86/6/6
f 85/6/6 83/6/6 87/6/6
f 86/6/6 85/6/6 87/6/6
f 83/5/6 79/5/6 87/5/6
f 78/5/6 86/5/6 88/5/6
f 86/5/6 87/5/6 88/5/6
f 87/5/6 79/5/6 89/5/6
f 88/5/6 87/5/6 89/5/6
f 90/5/6 91/5/6 92/5/6
f 92/5/6 91/5/6 93/5/6
f 94/5/6 95/5/6 96/5/6
f 96/5/6 95/5/6 97/5/6
f 98/5/6 99/5/6 100/5/6
f 100/5/6 99/5/6 101/5/6
