# MagicaVoxel @ Ephtracy

# group
o 

# material
mtllib Character Male Chiquito.mtl
usemtl palette

# normals
vn -1 0 0
vn 1 0 0
vn 0 0 1
vn 0 0 -1
vn 0 -1 0
vn 0 1 0

# texcoords
vt 0.0605469 0.5
vt 0.978516 0.5
vt 0.986328 0.5
vt 0.990234 0.5
vt 0.994141 0.5

# verts
v -0.5 0.5 0
v -0.5 0.5 -0.1
v -0.5 0.6 0
v -0.5 0.6 -0.1
v -0.4 0.8 0
v -0.4 0.8 -0.1
v -0.4 0.9 0
v -0.4 0.9 -0.1
v -0.3 0.7 0
v -0.3 0.7 -0.2
v -0.3 0.8 0.1
v -0.3 0.8 0
v -0.3 0.8 -0.1
v -0.3 0.9 0.2
v -0.3 0.9 0.1
v -0.3 0.9 0
v -0.3 0.9 -0.1
v -0.3 1.1 0.2
v -0.3 1.1 -0.2
v -0.2 0 0
v -0.2 0 -0.1
v -0.2 0.1 0
v -0.2 0.1 -0.1
v -0.2 0.2 0.1
v -0.2 0.2 0
v -0.2 0.2 -0.1
v -0.2 0.2 -0.2
v -0.2 0.3 0.1
v -0.2 0.3 -0.2
v -0.2 0.4 0.1
v -0.2 0.4 -0.2
v -0.2 0.5 0
v -0.2 0.5 -0.1
v -0.2 0.6 0
v -0.2 0.6 -0.1
v -0.2 0.7 0.1
v -0.2 0.7 0
v -0.2 0.7 -0.2
v -0.2 0.7 -0.3
v -0.2 0.8 0.1
v -0.2 0.8 0
v -0.2 1.1 0.1
v -0.2 1.1 -0.2
v -0.2 1.2 0.1
v -0.2 1.2 -0.3
v -0.1 1.1 0.2
v -0.1 1.1 0.1
v -0.1 1.2 0.2
v -0.1 1.2 0.1
v -0.1 1.2 0
v -0.1 1.3 0.1
v -0.1 1.3 0
v 0 0.9 0.2
v 0 0.9 0.1
v 0 1.1 0.2
v 0 1.1 0.1
v 0.1 0 0
v 0.1 0 -0.1
v 0.1 0.1 0
v 0.1 0.1 -0.1
v 0.1 0.2 0
v 0.1 0.2 -0.1
v 0.2 0.9 0.2
v 0.2 0.9 0.1
v 0.2 1 0.2
v 0.2 1 0.1
v -0.2 0.9 0.2
v -0.2 0.9 0.1
v -0.2 1 0.2
v -0.2 1 0.1
v -0.1 0 0
v -0.1 0 -0.1
v -0.1 0.1 0
v -0.1 0.1 -0.1
v -0.1 0.2 0
v -0.1 0.2 -0.1
v -0.1 1 0.2
v -0.1 1 0.1
v -0.1 1.1 0.2
v -0.1 1.1 0.1
v 0 1.2 0.1
v 0 1.2 0
v 0 1.3 0.1
v 0 1.3 0
v 0.1 0.9 0.2
v 0.1 0.9 0.1
v 0.1 1 0.2
v 0.1 1 0.1
v 0.1 1.1 0.2
v 0.1 1.1 0.1
v 0.1 1.2 0.2
v 0.1 1.2 0.1
v 0.2 0 0
v 0.2 0 -0.1
v 0.2 0.1 0
v 0.2 0.1 -0.1
v 0.2 0.2 0.1
v 0.2 0.2 0
v 0.2 0.2 -0.1
v 0.2 0.2 -0.2
v 0.2 0.3 0.1
v 0.2 0.3 -0.2
v 0.2 0.4 0.1
v 0.2 0.4 -0.2
v 0.2 0.5 0
v 0.2 0.5 -0.1
v 0.2 0.6 0
v 0.2 0.6 -0.1
v 0.2 0.7 0.1
v 0.2 0.7 0
v 0.2 0.7 -0.2
v 0.2 0.7 -0.3
v 0.2 0.8 0.1
v 0.2 0.8 0
v 0.2 0.8 -0.2
v 0.2 0.8 -0.3
v 0.2 1 -0.2
v 0.2 1 -0.3
v 0.2 1.1 -0.1
v 0.2 1.1 -0.2
v 0.2 1.2 -0.1
v 0.2 1.2 -0.3
v 0.3 0.7 0
v 0.3 0.7 -0.2
v 0.3 0.8 0.1
v 0.3 0.8 0
v 0.3 0.8 -0.1
v 0.3 0.8 -0.2
v 0.3 0.8 -0.3
v 0.3 0.9 0.2
v 0.3 0.9 0.1
v 0.3 0.9 0
v 0.3 0.9 -0.1
v 0.3 1 -0.2
v 0.3 1 -0.3
v 0.3 1.1 0.2
v 0.3 1.1 0.1
v 0.3 1.1 -0.1
v 0.3 1.1 -0.2
v 0.3 1.2 0.1
v 0.3 1.2 -0.1
v 0.4 0.8 0
v 0.4 0.8 -0.1
v 0.4 0.9 0
v 0.4 0.9 -0.1
v 0.5 0.5 0
v 0.5 0.5 -0.1
v 0.5 0.6 0
v 0.5 0.6 -0.1
v -0.3 0.9 0.2
v -0.3 1.1 0.2
v -0.2 0.9 0.2
v -0.2 1 0.2
v -0.1 1 0.2
v -0.1 1.1 0.2
v -0.1 1.2 0.2
v 0 0.9 0.2
v 0 1.1 0.2
v 0.1 0.9 0.2
v 0.1 1 0.2
v 0.1 1.1 0.2
v 0.1 1.2 0.2
v 0.2 0.9 0.2
v 0.2 1 0.2
v 0.3 0.9 0.2
v 0.3 1.1 0.2
v -0.3 0.8 0.1
v -0.3 0.9 0.1
v -0.2 0.2 0.1
v -0.2 0.3 0.1
v -0.2 0.4 0.1
v -0.2 0.7 0.1
v -0.2 0.8 0.1
v -0.2 0.9 0.1
v -0.2 1 0.1
v -0.2 1.1 0.1
v -0.2 1.2 0.1
v -0.1 0.3 0.1
v -0.1 0.4 0.1
v -0.1 0.8 0.1
v -0.1 0.9 0.1
v -0.1 1 0.1
v -0.1 1.1 0.1
v -0.1 1.2 0.1
v -0.1 1.3 0.1
v 0 0.9 0.1
v 0 1.1 0.1
v 0 1.2 0.1
v 0 1.3 0.1
v 0.1 0.3 0.1
v 0.1 0.4 0.1
v 0.1 0.8 0.1
v 0.1 0.9 0.1
v 0.1 1 0.1
v 0.1 1.1 0.1
v 0.1 1.2 0.1
v 0.2 0.2 0.1
v 0.2 0.3 0.1
v 0.2 0.4 0.1
v 0.2 0.7 0.1
v 0.2 0.8 0.1
v 0.2 0.9 0.1
v 0.2 1 0.1
v 0.3 0.8 0.1
v 0.3 0.9 0.1
v 0.3 1.1 0.1
v 0.3 1.2 0.1
v -0.5 0.5 0
v -0.5 0.6 0
v -0.4 0.5 0
v -0.4 0.6 0
v -0.4 0.8 0
v -0.4 0.9 0
v -0.3 0.7 0
v -0.3 0.8 0
v -0.3 0.9 0
v -0.2 0 0
v -0.2 0.1 0
v -0.2 0.2 0
v -0.2 0.5 0
v -0.2 0.6 0
v -0.2 0.7 0
v -0.2 0.8 0
v -0.1 0 0
v -0.1 0.1 0
v -0.1 0.2 0
v 0.1 0 0
v 0.1 0.1 0
v 0.1 0.2 0
v 0.2 0 0
v 0.2 0.1 0
v 0.2 0.2 0
v 0.2 0.5 0
v 0.2 0.6 0
v 0.2 0.7 0
v 0.2 0.8 0
v 0.3 0.7 0
v 0.3 0.8 0
v 0.3 0.9 0
v 0.4 0.5 0
v 0.4 0.6 0
v 0.4 0.8 0
v 0.4 0.9 0
v 0.5 0.5 0
v 0.5 0.6 0
v -0.1 1.2 0
v -0.1 1.3 0
v 0 1.2 0
v 0 1.3 0
v -0.5 0.5 -0.1
v -0.5 0.6 -0.1
v -0.4 0.5 -0.1
v -0.4 0.6 -0.1
v -0.4 0.8 -0.1
v -0.4 0.9 -0.1
v -0.3 0.8 -0.1
v -0.3 0.9 -0.1
v -0.2 0 -0.1
v -0.2 0.1 -0.1
v -0.2 0.2 -0.1
v -0.2 0.5 -0.1
v -0.2 0.6 -0.1
v -0.1 0 -0.1
v -0.1 0.1 -0.1
v -0.1 0.2 -0.1
v 0.1 0 -0.1
v 0.1 0.1 -0.1
v 0.1 0.2 -0.1
v 0.2 0 -0.1
v 0.2 0.1 -0.1
v 0.2 0.2 -0.1
v 0.2 0.5 -0.1
v 0.2 0.6 -0.1
v 0.2 1.1 -0.1
v 0.2 1.2 -0.1
v 0.3 0.8 -0.1
v 0.3 0.9 -0.1
v 0.3 1.1 -0.1
v 0.3 1.2 -0.1
v 0.4 0.5 -0.1
v 0.4 0.6 -0.1
v 0.4 0.8 -0.1
v 0.4 0.9 -0.1
v 0.5 0.5 -0.1
v 0.5 0.6 -0.1
v -0.3 0.7 -0.2
v -0.3 1.1 -0.2
v -0.2 0.2 -0.2
v -0.2 0.3 -0.2
v -0.2 0.4 -0.2
v -0.2 0.7 -0.2
v -0.2 1.1 -0.2
v 0.2 0.2 -0.2
v 0.2 0.3 -0.2
v 0.2 0.4 -0.2
v 0.2 0.7 -0.2
v 0.2 0.8 -0.2
v 0.2 1 -0.2
v 0.2 1.1 -0.2
v 0.3 0.7 -0.2
v 0.3 0.8 -0.2
v 0.3 1 -0.2
v 0.3 1.1 -0.2
v -0.2 0.7 -0.3
v -0.2 1.2 -0.3
v 0.2 0.7 -0.3
v 0.2 0.8 -0.3
v 0.2 1 -0.3
v 0.2 1.2 -0.3
v 0.3 0.8 -0.3
v 0.3 1 -0.3
v -0.2 0 0
v -0.1 0 0
v 0.1 0 0
v 0.2 0 0
v -0.2 0 -0.1
v -0.1 0 -0.1
v 0.1 0 -0.1
v 0.2 0 -0.1
v -0.2 0.2 0.1
v 0.2 0.2 0.1
v -0.2 0.2 0
v -0.1 0.2 0
v 0.1 0.2 0
v 0.2 0.2 0
v -0.2 0.2 -0.1
v -0.1 0.2 -0.1
v 0.1 0.2 -0.1
v 0.2 0.2 -0.1
v -0.2 0.2 -0.2
v 0.2 0.2 -0.2
v -0.5 0.5 0
v -0.4 0.5 0
v -0.2 0.5 0
v 0.2 0.5 0
v 0.4 0.5 0
v 0.5 0.5 0
v -0.5 0.5 -0.1
v -0.4 0.5 -0.1
v -0.2 0.5 -0.1
v 0.2 0.5 -0.1
v 0.4 0.5 -0.1
v 0.5 0.5 -0.1
v -0.3 0.7 0
v -0.2 0.7 0
v 0.2 0.7 0
v 0.3 0.7 0
v -0.3 0.7 -0.2
v -0.2 0.7 -0.2
v 0.2 0.7 -0.2
v 0.3 0.7 -0.2
v -0.2 0.7 -0.3
v 0.2 0.7 -0.3
v -0.3 0.8 0.1
v -0.2 0.8 0.1
v 0.2 0.8 0.1
v 0.3 0.8 0.1
v -0.4 0.8 0
v -0.3 0.8 0
v -0.2 0.8 0
v 0.2 0.8 0
v 0.3 0.8 0
v 0.4 0.8 0
v -0.4 0.8 -0.1
v -0.3 0.8 -0.1
v 0.3 0.8 -0.1
v 0.4 0.8 -0.1
v 0.2 0.8 -0.2
v 0.3 0.8 -0.2
v 0.2 0.8 -0.3
v 0.3 0.8 -0.3
v -0.3 0.9 0.2
v -0.2 0.9 0.2
v 0 0.9 0.2
v 0.1 0.9 0.2
v 0.2 0.9 0.2
v 0.3 0.9 0.2
v -0.3 0.9 0.1
v -0.2 0.9 0.1
v 0 0.9 0.1
v 0.1 0.9 0.1
v 0.2 0.9 0.1
v 0.3 0.9 0.1
v -0.2 1 0.2
v -0.1 1 0.2
v 0.1 1 0.2
v 0.2 1 0.2
v -0.2 1 0.1
v -0.1 1 0.1
v 0.1 1 0.1
v 0.2 1 0.1
v -0.1 1.1 0.2
v 0 1.1 0.2
v -0.1 1.1 0.1
v 0 1.1 0.1
v -0.5 0.6 0
v -0.4 0.6 0
v -0.2 0.6 0
v 0.2 0.6 0
v 0.4 0.6 0
v 0.5 0.6 0
v -0.5 0.6 -0.1
v -0.4 0.6 -0.1
v -0.2 0.6 -0.1
v 0.2 0.6 -0.1
v 0.4 0.6 -0.1
v 0.5 0.6 -0.1
v -0.4 0.9 0
v -0.3 0.9 0
v 0.3 0.9 0
v 0.4 0.9 0
v -0.4 0.9 -0.1
v -0.3 0.9 -0.1
v 0.3 0.9 -0.1
v 0.4 0.9 -0.1
v 0.2 1 -0.2
v 0.3 1 -0.2
v 0.2 1 -0.3
v 0.3 1 -0.3
v -0.3 1.1 0.2
v -0.1 1.1 0.2
v 0.1 1.1 0.2
v 0.3 1.1 0.2
v -0.2 1.1 0.1
v -0.1 1.1 0.1
v 0.1 1.1 0.1
v 0.3 1.1 0.1
v 0.2 1.1 -0.1
v 0.3 1.1 -0.1
v -0.3 1.1 -0.2
v -0.2 1.1 -0.2
v 0.2 1.1 -0.2
v 0.3 1.1 -0.2
v -0.1 1.2 0.2
v 0.1 1.2 0.2
v -0.2 1.2 0.1
v -0.1 1.2 0.1
v 0 1.2 0.1
v 0.1 1.2 0.1
v 0.3 1.2 0.1
v -0.1 1.2 0
v 0 1.2 0
v 0.2 1.2 -0.1
v 0.3 1.2 -0.1
v -0.2 1.2 -0.3
v 0.2 1.2 -0.3
v -0.1 1.3 0.1
v 0 1.3 0.1
v -0.1 1.3 0
v 0 1.3 0

# faces
f 3/1/1 2/1/1 1/1/1
f 4/1/1 2/1/1 3/1/1
f 7/1/1 6/1/1 5/1/1
f 8/1/1 6/1/1 7/1/1
f 12/5/1 10/5/1 9/5/1
f 13/5/1 10/5/1 12/5/1
f 15/5/1 12/5/1 11/5/1
f 16/5/1 12/5/1 15/5/1
f 17/5/1 10/5/1 13/5/1
f 18/5/1 16/5/1 15/5/1
f 18/5/1 17/5/1 16/5/1
f 18/5/1 15/5/1 14/5/1
f 19/5/1 10/5/1 17/5/1
f 19/5/1 17/5/1 18/5/1
f 22/2/1 21/2/1 20/2/1
f 23/2/1 21/2/1 22/2/1
f 25/5/1 23/5/1 22/5/1
f 26/5/1 23/5/1 25/5/1
f 28/5/1 26/5/1 25/5/1
f 28/5/1 27/5/1 26/5/1
f 28/5/1 25/5/1 24/5/1
f 29/5/1 27/5/1 28/5/1
f 30/2/1 29/2/1 28/2/1
f 31/2/1 29/2/1 30/2/1
f 32/5/1 31/5/1 30/5/1
f 33/5/1 31/5/1 32/5/1
f 34/5/1 32/5/1 30/5/1
f 35/5/1 31/5/1 33/5/1
f 36/5/1 34/5/1 30/5/1
f 36/5/1 35/5/1 34/5/1
f 37/5/1 35/5/1 36/5/1
f 38/5/1 31/5/1 35/5/1
f 38/5/1 35/5/1 37/5/1
f 40/1/1 37/1/1 36/1/1
f 41/1/1 37/1/1 40/1/1
f 43/5/1 39/5/1 38/5/1
f 44/5/1 43/5/1 42/5/1
f 45/5/1 39/5/1 43/5/1
f 45/5/1 43/5/1 44/5/1
f 48/5/1 47/5/1 46/5/1
f 49/5/1 47/5/1 48/5/1
f 51/5/1 50/5/1 49/5/1
f 52/5/1 50/5/1 51/5/1
f 55/5/1 54/5/1 53/5/1
f 56/5/1 54/5/1 55/5/1
f 59/2/1 58/2/1 57/2/1
f 60/2/1 58/2/1 59/2/1
f 61/5/1 60/5/1 59/5/1
f 62/5/1 60/5/1 61/5/1
f 65/5/1 64/5/1 63/5/1
f 66/5/1 64/5/1 65/5/1
f 67/5/2 68/5/2 69/5/2
f 69/5/2 68/5/2 70/5/2
f 71/2/2 72/2/2 73/2/2
f 73/2/2 72/2/2 74/2/2
f 73/5/2 74/5/2 75/5/2
f 75/5/2 74/5/2 76/5/2
f 77/5/2 78/5/2 79/5/2
f 79/5/2 78/5/2 80/5/2
f 81/5/2 82/5/2 83/5/2
f 83/5/2 82/5/2 84/5/2
f 85/5/2 86/5/2 87/5/2
f 87/5/2 86/5/2 88/5/2
f 89/5/2 90/5/2 91/5/2
f 91/5/2 90/5/2 92/5/2
f 93/2/2 94/2/2 95/2/2
f 95/2/2 94/2/2 96/2/2
f 95/5/2 96/5/2 98/5/2
f 98/5/2 96/5/2 99/5/2
f 98/5/2 99/5/2 101/5/2
f 99/5/2 100/5/2 101/5/2
f 97/5/2 98/5/2 101/5/2
f 101/5/2 100/5/2 102/5/2
f 101/2/2 102/2/2 103/2/2
f 103/2/2 102/2/2 104/2/2
f 103/5/2 104/5/2 105/5/2
f 105/5/2 104/5/2 106/5/2
f 103/5/2 105/5/2 107/5/2
f 106/5/2 104/5/2 108/5/2
f 103/5/2 107/5/2 109/5/2
f 107/5/2 108/5/2 109/5/2
f 109/5/2 108/5/2 110/5/2
f 108/5/2 104/5/2 111/5/2
f 110/5/2 108/5/2 111/5/2
f 109/1/2 110/1/2 113/1/2
f 113/1/2 110/1/2 114/1/2
f 111/5/2 112/5/2 115/5/2
f 115/5/2 112/5/2 116/5/2
f 117/5/2 118/5/2 120/5/2
f 119/5/2 120/5/2 121/5/2
f 120/5/2 118/5/2 122/5/2
f 121/5/2 120/5/2 122/5/2
f 123/5/2 124/5/2 126/5/2
f 126/5/2 124/5/2 127/5/2
f 127/5/2 124/5/2 128/5/2
f 125/5/2 126/5/2 131/5/2
f 131/5/2 126/5/2 132/5/2
f 127/5/2 128/5/2 133/5/2
f 128/5/2 129/5/2 133/5/2
f 131/5/2 132/5/2 134/5/2
f 132/5/2 133/5/2 134/5/2
f 133/5/2 129/5/2 134/5/2
f 130/5/2 131/5/2 134/5/2
f 134/5/2 129/5/2 135/5/2
f 130/5/2 134/5/2 136/5/2
f 136/5/2 134/5/2 137/5/2
f 137/5/2 134/5/2 138/5/2
f 138/5/2 134/5/2 139/5/2
f 137/5/2 138/5/2 140/5/2
f 140/5/2 138/5/2 141/5/2
f 142/1/2 143/1/2 144/1/2
f 144/1/2 143/1/2 145/1/2
f 146/1/2 147/1/2 148/1/2
f 148/1/2 147/1/2 149/1/2
f 152/5/3 151/5/3 150/5/3
f 153/5/3 151/5/3 152/5/3
f 154/5/3 151/5/3 153/5/3
f 155/5/3 151/5/3 154/5/3
f 158/5/3 156/5/3 155/5/3
f 159/5/3 158/5/3 157/5/3
f 160/5/3 158/5/3 159/5/3
f 161/5/3 156/5/3 158/5/3
f 161/5/3 158/5/3 160/5/3
f 162/5/3 156/5/3 161/5/3
f 164/5/3 161/5/3 160/5/3
f 165/5/3 164/5/3 163/5/3
f 166/5/3 161/5/3 164/5/3
f 166/5/3 164/5/3 165/5/3
f 173/5/3 168/5/3 167/5/3
f 174/5/3 168/5/3 173/5/3
f 178/5/3 170/5/3 169/5/3
f 178/2/3 171/2/3 170/2/3
f 179/5/3 172/5/3 171/5/3
f 179/2/3 171/2/3 178/2/3
f 180/1/3 173/1/3 172/1/3
f 180/4/3 174/4/3 173/4/3
f 181/5/3 175/5/3 174/5/3
f 181/4/3 174/4/3 180/4/3
f 182/5/3 175/5/3 181/5/3
f 183/5/3 177/5/3 176/5/3
f 184/5/3 177/5/3 183/5/3
f 186/5/3 182/5/3 181/5/3
f 186/1/3 181/1/3 180/1/3
f 186/5/3 183/5/3 182/5/3
f 187/5/3 183/5/3 186/5/3
f 188/5/3 185/5/3 184/5/3
f 189/5/3 185/5/3 188/5/3
f 190/5/3 178/5/3 169/5/3
f 190/3/3 179/3/3 178/3/3
f 191/5/3 172/5/3 179/5/3
f 191/3/3 179/3/3 190/3/3
f 192/1/3 180/1/3 172/1/3
f 192/1/3 186/1/3 180/1/3
f 193/1/3 186/1/3 192/1/3
f 197/5/3 190/5/3 169/5/3
f 198/2/3 191/2/3 190/2/3
f 198/5/3 190/5/3 197/5/3
f 199/5/3 172/5/3 191/5/3
f 199/2/3 191/2/3 198/2/3
f 200/1/3 192/1/3 172/1/3
f 200/5/3 172/5/3 199/5/3
f 201/4/3 193/4/3 192/4/3
f 201/1/3 192/1/3 200/1/3
f 202/5/3 194/5/3 193/5/3
f 202/4/3 193/4/3 201/4/3
f 203/5/3 194/5/3 202/5/3
f 204/5/3 202/5/3 201/5/3
f 205/5/3 202/5/3 204/5/3
f 206/5/3 196/5/3 195/5/3
f 207/5/3 196/5/3 206/5/3
f 210/1/3 209/1/3 208/1/3
f 211/1/3 209/1/3 210/1/3
f 215/1/3 213/1/3 212/1/3
f 216/1/3 213/1/3 215/1/3
f 220/5/3 211/5/3 210/5/3
f 221/5/3 211/5/3 220/5/3
f 222/5/3 215/5/3 214/5/3
f 223/5/3 215/5/3 222/5/3
f 224/2/3 218/2/3 217/2/3
f 225/5/3 219/5/3 218/5/3
f 225/2/3 218/2/3 224/2/3
f 226/5/3 219/5/3 225/5/3
f 230/2/3 228/2/3 227/2/3
f 231/5/3 229/5/3 228/5/3
f 231/2/3 228/2/3 230/2/3
f 232/5/3 229/5/3 231/5/3
f 237/5/3 236/5/3 235/5/3
f 238/5/3 236/5/3 237/5/3
f 240/5/3 234/5/3 233/5/3
f 241/5/3 234/5/3 240/5/3
f 242/1/3 239/1/3 238/1/3
f 243/1/3 239/1/3 242/1/3
f 244/1/3 241/1/3 240/1/3
f 245/1/3 241/1/3 244/1/3
f 246/5/4 247/5/4 248/5/4
f 248/5/4 247/5/4 249/5/4
f 250/1/4 251/1/4 252/1/4
f 252/1/4 251/1/4 253/1/4
f 254/1/4 255/1/4 256/1/4
f 256/1/4 255/1/4 257/1/4
f 252/5/4 253/5/4 261/5/4
f 261/5/4 253/5/4 262/5/4
f 258/2/4 259/2/4 263/2/4
f 259/5/4 260/5/4 264/5/4
f 263/2/4 259/2/4 264/2/4
f 264/5/4 260/5/4 265/5/4
f 266/2/4 267/2/4 269/2/4
f 267/5/4 268/5/4 270/5/4
f 269/2/4 267/2/4 270/2/4
f 270/5/4 268/5/4 271/5/4
f 274/5/4 275/5/4 278/5/4
f 278/5/4 275/5/4 279/5/4
f 272/5/4 273/5/4 280/5/4
f 280/5/4 273/5/4 281/5/4
f 276/1/4 277/1/4 282/1/4
f 282/1/4 277/1/4 283/1/4
f 280/1/4 281/1/4 284/1/4
f 284/1/4 281/1/4 285/1/4
f 286/5/4 287/5/4 291/5/4
f 291/5/4 287/5/4 292/5/4
f 288/5/4 289/5/4 293/5/4
f 289/2/4 290/2/4 294/2/4
f 293/5/4 289/5/4 294/5/4
f 290/5/4 291/5/4 295/5/4
f 294/2/4 290/2/4 295/2/4
f 295/5/4 291/5/4 296/5/4
f 296/5/4 297/5/4 300/5/4
f 300/5/4 297/5/4 301/5/4
f 298/5/4 299/5/4 302/5/4
f 302/5/4 299/5/4 303/5/4
f 304/5/4 305/5/4 306/5/4
f 306/5/4 305/5/4 307/5/4
f 307/5/4 305/5/4 308/5/4
f 308/5/4 305/5/4 309/5/4
f 307/5/4 308/5/4 310/5/4
f 310/5/4 308/5/4 311/5/4
f 316/2/5 313/2/5 312/2/5
f 317/2/5 313/2/5 316/2/5
f 318/2/5 315/2/5 314/2/5
f 319/2/5 315/2/5 318/2/5
f 322/5/5 321/5/5 320/5/5
f 323/5/5 321/5/5 322/5/5
f 324/5/5 321/5/5 323/5/5
f 325/5/5 321/5/5 324/5/5
f 327/5/5 324/5/5 323/5/5
f 328/5/5 324/5/5 327/5/5
f 330/5/5 327/5/5 326/5/5
f 330/5/5 329/5/5 328/5/5
f 330/5/5 328/5/5 327/5/5
f 331/5/5 329/5/5 330/5/5
f 338/1/5 333/1/5 332/1/5
f 339/5/5 334/5/5 333/5/5
f 339/1/5 333/1/5 338/1/5
f 340/5/5 334/5/5 339/5/5
f 341/5/5 336/5/5 335/5/5
f 342/1/5 337/1/5 336/1/5
f 342/5/5 336/5/5 341/5/5
f 343/1/5 337/1/5 342/1/5
f 348/5/5 345/5/5 344/5/5
f 349/5/5 345/5/5 348/5/5
f 350/5/5 347/5/5 346/5/5
f 351/5/5 347/5/5 350/5/5
f 352/5/5 350/5/5 349/5/5
f 353/5/5 350/5/5 352/5/5
f 359/5/5 355/5/5 354/5/5
f 360/5/5 355/5/5 359/5/5
f 361/5/5 357/5/5 356/5/5
f 362/5/5 357/5/5 361/5/5
f 364/1/5 359/1/5 358/1/5
f 365/1/5 359/1/5 364/1/5
f 366/1/5 363/1/5 362/1/5
f 367/1/5 363/1/5 366/1/5
f 370/5/5 369/5/5 368/5/5
f 371/5/5 369/5/5 370/5/5
f 378/5/5 373/5/5 372/5/5
f 379/5/5 373/5/5 378/5/5
f 380/5/5 375/5/5 374/5/5
f 381/5/5 375/5/5 380/5/5
f 382/5/5 377/5/5 376/5/5
f 383/5/5 377/5/5 382/5/5
f 388/5/5 385/5/5 384/5/5
f 389/5/5 385/5/5 388/5/5
f 390/5/5 387/5/5 386/5/5
f 391/5/5 387/5/5 390/5/5
f 394/5/5 393/5/5 392/5/5
f 395/5/5 393/5/5 394/5/5
f 396/1/6 397/1/6 402/1/6
f 397/5/6 398/5/6 403/5/6
f 402/1/6 397/1/6 403/1/6
f 403/5/6 398/5/6 404/5/6
f 399/5/6 400/5/6 405/5/6
f 400/1/6 401/1/6 406/1/6
f 405/5/6 400/5/6 406/5/6
f 406/1/6 401/1/6 407/1/6
f 408/1/6 409/1/6 412/1/6
f 412/1/6 409/1/6 413/1/6
f 410/1/6 411/1/6 414/1/6
f 414/1/6 411/1/6 415/1/6
f 416/5/6 417/5/6 418/5/6
f 418/5/6 417/5/6 419/5/6
f 420/5/6 421/5/6 424/5/6
f 424/5/6 421/5/6 425/5/6
f 422/5/6 423/5/6 426/5/6
f 426/5/6 423/5/6 427/5/6
f 420/5/6 424/5/6 430/5/6
f 430/5/6 424/5/6 431/5/6
f 428/5/6 429/5/6 432/5/6
f 432/5/6 429/5/6 433/5/6
f 434/5/6 435/5/6 437/5/6
f 437/5/6 435/5/6 438/5/6
f 438/5/6 435/5/6 439/5/6
f 436/5/6 437/5/6 441/5/6
f 439/5/6 440/5/6 442/5/6
f 438/5/6 439/5/6 442/5/6
f 442/5/6 440/5/6 443/5/6
f 441/5/6 442/5/6 443/5/6
f 443/5/6 440/5/6 444/5/6
f 436/5/6 441/5/6 445/5/6
f 441/5/6 443/5/6 445/5/6
f 445/5/6 443/5/6 446/5/6
f 447/5/6 448/5/6 449/5/6
f 449/5/6 448/5/6 450/5/6
