# MagicaVoxel @ Ephtracy

# group
o 

# material
mtllib Flecha.mtl
usemtl palette

# normals
vn -1 0 0
vn 1 0 0
vn 0 0 1
vn 0 0 -1
vn 0 -1 0
vn 0 1 0

# texcoords
vt 0.880859 0.5
vt 0.888672 0.5

# verts
v -1.5 1.2 0.4
v -1.5 1.2 -0.4
v -1.5 1.4 0.4
v -1.5 1.4 -0.4
v -1.5 1.8 0.4
v -1.5 1.8 -0.4
v 0.6 1.2 0.9
v 0.6 1.2 0.4
v 0.6 1.2 -0.4
v 0.6 1.2 -0.9
v 0.6 1.4 0.9
v 0.6 1.4 0.4
v 0.6 1.4 -0.4
v 0.6 1.4 -0.9
v 0.6 1.8 0.9
v 0.6 1.8 0.4
v 0.6 1.8 -0.4
v 0.6 1.8 -0.9
v 0.7 1.2 0.9
v 0.7 1.2 0.8
v 0.7 1.2 -0.8
v 0.7 1.2 -0.9
v 0.7 1.4 0.9
v 0.7 1.4 0.8
v 0.7 1.4 -0.8
v 0.7 1.4 -0.9
v 0.7 1.8 0.9
v 0.7 1.8 0.8
v 0.7 1.8 -0.8
v 0.7 1.8 -0.9
v 0.8 1.2 0.8
v 0.8 1.2 0.7
v 0.8 1.2 -0.7
v 0.8 1.2 -0.8
v 0.8 1.4 0.8
v 0.8 1.4 0.7
v 0.8 1.4 -0.7
v 0.8 1.4 -0.8
v 0.8 1.8 0.8
v 0.8 1.8 0.7
v 0.8 1.8 -0.7
v 0.8 1.8 -0.8
v 0.9 1.2 0.7
v 0.9 1.2 0.6
v 0.9 1.2 -0.6
v 0.9 1.2 -0.7
v 0.9 1.4 0.7
v 0.9 1.4 0.6
v 0.9 1.4 -0.6
v 0.9 1.4 -0.7
v 0.9 1.8 0.7
v 0.9 1.8 0.6
v 0.9 1.8 -0.6
v 0.9 1.8 -0.7
v 1 1.2 0.6
v 1 1.2 0.5
v 1 1.2 -0.5
v 1 1.2 -0.6
v 1 1.4 0.6
v 1 1.4 0.5
v 1 1.4 -0.5
v 1 1.4 -0.6
v 1 1.8 0.6
v 1 1.8 0.5
v 1 1.8 -0.5
v 1 1.8 -0.6
v 1.1 1.2 0.5
v 1.1 1.2 0.4
v 1.1 1.2 -0.4
v 1.1 1.2 -0.5
v 1.1 1.4 0.5
v 1.1 1.4 0.4
v 1.1 1.4 -0.4
v 1.1 1.4 -0.5
v 1.1 1.8 0.5
v 1.1 1.8 0.4
v 1.1 1.8 -0.4
v 1.1 1.8 -0.5
v 1.2 1.2 0.4
v 1.2 1.2 0.3
v 1.2 1.2 -0.3
v 1.2 1.2 -0.4
v 1.2 1.4 0.4
v 1.2 1.4 0.3
v 1.2 1.4 -0.3
v 1.2 1.4 -0.4
v 1.2 1.8 0.4
v 1.2 1.8 0.3
v 1.2 1.8 -0.3
v 1.2 1.8 -0.4
v 1.3 1.2 0.3
v 1.3 1.2 0.2
v 1.3 1.2 -0.2
v 1.3 1.2 -0.3
v 1.3 1.4 0.3
v 1.3 1.4 0.2
v 1.3 1.4 -0.2
v 1.3 1.4 -0.3
v 1.3 1.8 0.3
v 1.3 1.8 0.2
v 1.3 1.8 -0.2
v 1.3 1.8 -0.3
v 1.4 1.2 0.2
v 1.4 1.2 0.1
v 1.4 1.2 -0.1
v 1.4 1.2 -0.2
v 1.4 1.4 0.2
v 1.4 1.4 0.1
v 1.4 1.4 -0.1
v 1.4 1.4 -0.2
v 1.4 1.8 0.2
v 1.4 1.8 0.1
v 1.4 1.8 -0.1
v 1.4 1.8 -0.2
v 1.5 1.2 0.1
v 1.5 1.2 -0.1
v 1.5 1.4 0.1
v 1.5 1.4 -0.1
v 1.5 1.8 0.1
v 1.5 1.8 -0.1
v 0.6 1.2 0.9
v 0.6 1.4 0.9
v 0.6 1.8 0.9
v 0.7 1.2 0.9
v 0.7 1.4 0.9
v 0.7 1.8 0.9
v 0.7 1.2 0.8
v 0.7 1.4 0.8
v 0.7 1.8 0.8
v 0.8 1.2 0.8
v 0.8 1.4 0.8
v 0.8 1.8 0.8
v 0.8 1.2 0.7
v 0.8 1.4 0.7
v 0.8 1.8 0.7
v 0.9 1.2 0.7
v 0.9 1.4 0.7
v 0.9 1.8 0.7
v 0.9 1.2 0.6
v 0.9 1.4 0.6
v 0.9 1.8 0.6
v 1 1.2 0.6
v 1 1.4 0.6
v 1 1.8 0.6
v 1 1.2 0.5
v 1 1.4 0.5
v 1 1.8 0.5
v 1.1 1.2 0.5
v 1.1 1.4 0.5
v 1.1 1.8 0.5
v -1.5 1.2 0.4
v -1.5 1.4 0.4
v -1.5 1.8 0.4
v 0.6 1.2 0.4
v 0.6 1.4 0.4
v 0.6 1.8 0.4
v 1.1 1.2 0.4
v 1.1 1.4 0.4
v 1.1 1.8 0.4
v 1.2 1.2 0.4
v 1.2 1.4 0.4
v 1.2 1.8 0.4
v 1.2 1.2 0.3
v 1.2 1.4 0.3
v 1.2 1.8 0.3
v 1.3 1.2 0.3
v 1.3 1.4 0.3
v 1.3 1.8 0.3
v 1.3 1.2 0.2
v 1.3 1.4 0.2
v 1.3 1.8 0.2
v 1.4 1.2 0.2
v 1.4 1.4 0.2
v 1.4 1.8 0.2
v 1.4 1.2 0.1
v 1.4 1.4 0.1
v 1.4 1.8 0.1
v 1.5 1.2 0.1
v 1.5 1.4 0.1
v 1.5 1.8 0.1
v 1.4 1.2 -0.1
v 1.4 1.4 -0.1
v 1.4 1.8 -0.1
v 1.5 1.2 -0.1
v 1.5 1.4 -0.1
v 1.5 1.8 -0.1
v 1.3 1.2 -0.2
v 1.3 1.4 -0.2
v 1.3 1.8 -0.2
v 1.4 1.2 -0.2
v 1.4 1.4 -0.2
v 1.4 1.8 -0.2
v 1.2 1.2 -0.3
v 1.2 1.4 -0.3
v 1.2 1.8 -0.3
v 1.3 1.2 -0.3
v 1.3 1.4 -0.3
v 1.3 1.8 -0.3
v -1.5 1.2 -0.4
v -1.5 1.4 -0.4
v -1.5 1.8 -0.4
v 0.6 1.2 -0.4
v 0.6 1.4 -0.4
v 0.6 1.8 -0.4
v 1.1 1.2 -0.4
v 1.1 1.4 -0.4
v 1.1 1.8 -0.4
v 1.2 1.2 -0.4
v 1.2 1.4 -0.4
v 1.2 1.8 -0.4
v 1 1.2 -0.5
v 1 1.4 -0.5
v 1 1.8 -0.5
v 1.1 1.2 -0.5
v 1.1 1.4 -0.5
v 1.1 1.8 -0.5
v 0.9 1.2 -0.6
v 0.9 1.4 -0.6
v 0.9 1.8 -0.6
v 1 1.2 -0.6
v 1 1.4 -0.6
v 1 1.8 -0.6
v 0.8 1.2 -0.7
v 0.8 1.4 -0.7
v 0.8 1.8 -0.7
v 0.9 1.2 -0.7
v 0.9 1.4 -0.7
v 0.9 1.8 -0.7
v 0.7 1.2 -0.8
v 0.7 1.4 -0.8
v 0.7 1.8 -0.8
v 0.8 1.2 -0.8
v 0.8 1.4 -0.8
v 0.8 1.8 -0.8
v 0.6 1.2 -0.9
v 0.6 1.4 -0.9
v 0.6 1.8 -0.9
v 0.7 1.2 -0.9
v 0.7 1.4 -0.9
v 0.7 1.8 -0.9
v 0.6 1.2 0.9
v 0.7 1.2 0.9
v 0.7 1.2 0.8
v 0.8 1.2 0.8
v 0.8 1.2 0.7
v 0.9 1.2 0.7
v 0.9 1.2 0.6
v 1 1.2 0.6
v 1 1.2 0.5
v 1.1 1.2 0.5
v -1.5 1.2 0.4
v 0.6 1.2 0.4
v 1.1 1.2 0.4
v 1.2 1.2 0.4
v 1.2 1.2 0.3
v 1.3 1.2 0.3
v 1.3 1.2 0.2
v 1.4 1.2 0.2
v 1.4 1.2 0.1
v 1.5 1.2 0.1
v 1.4 1.2 -0.1
v 1.5 1.2 -0.1
v 1.3 1.2 -0.2
v 1.4 1.2 -0.2
v 1.2 1.2 -0.3
v 1.3 1.2 -0.3
v -1.5 1.2 -0.4
v 0.6 1.2 -0.4
v 1.1 1.2 -0.4
v 1.2 1.2 -0.4
v 1 1.2 -0.5
v 1.1 1.2 -0.5
v 0.9 1.2 -0.6
v 1 1.2 -0.6
v 0.8 1.2 -0.7
v 0.9 1.2 -0.7
v 0.7 1.2 -0.8
v 0.8 1.2 -0.8
v 0.6 1.2 -0.9
v 0.7 1.2 -0.9
v 0.6 1.8 0.9
v 0.7 1.8 0.9
v 0.7 1.8 0.8
v 0.8 1.8 0.8
v 0.8 1.8 0.7
v 0.9 1.8 0.7
v 0.9 1.8 0.6
v 1 1.8 0.6
v 1 1.8 0.5
v 1.1 1.8 0.5
v -1.5 1.8 0.4
v 0.6 1.8 0.4
v 1.1 1.8 0.4
v 1.2 1.8 0.4
v 1.2 1.8 0.3
v 1.3 1.8 0.3
v 1.3 1.8 0.2
v 1.4 1.8 0.2
v 1.4 1.8 0.1
v 1.5 1.8 0.1
v 1.4 1.8 -0.1
v 1.5 1.8 -0.1
v 1.3 1.8 -0.2
v 1.4 1.8 -0.2
v 1.2 1.8 -0.3
v 1.3 1.8 -0.3
v -1.5 1.8 -0.4
v 0.6 1.8 -0.4
v 1.1 1.8 -0.4
v 1.2 1.8 -0.4
v 1 1.8 -0.5
v 1.1 1.8 -0.5
v 0.9 1.8 -0.6
v 1 1.8 -0.6
v 0.8 1.8 -0.7
v 0.9 1.8 -0.7
v 0.7 1.8 -0.8
v 0.8 1.8 -0.8
v 0.6 1.8 -0.9
v 0.7 1.8 -0.9

# faces
f 3/2/1 2/2/1 1/2/1
f 4/2/1 2/2/1 3/2/1
f 5/1/1 4/1/1 3/1/1
f 6/1/1 4/1/1 5/1/1
f 11/2/1 8/2/1 7/2/1
f 12/2/1 8/2/1 11/2/1
f 13/2/1 10/2/1 9/2/1
f 14/2/1 10/2/1 13/2/1
f 15/1/1 12/1/1 11/1/1
f 16/1/1 12/1/1 15/1/1
f 17/1/1 14/1/1 13/1/1
f 18/1/1 14/1/1 17/1/1
f 19/2/2 20/2/2 23/2/2
f 23/2/2 20/2/2 24/2/2
f 21/2/2 22/2/2 25/2/2
f 25/2/2 22/2/2 26/2/2
f 23/1/2 24/1/2 27/1/2
f 27/1/2 24/1/2 28/1/2
f 25/1/2 26/1/2 29/1/2
f 29/1/2 26/1/2 30/1/2
f 31/2/2 32/2/2 35/2/2
f 35/2/2 32/2/2 36/2/2
f 33/2/2 34/2/2 37/2/2
f 37/2/2 34/2/2 38/2/2
f 35/1/2 36/1/2 39/1/2
f 39/1/2 36/1/2 40/1/2
f 37/1/2 38/1/2 41/1/2
f 41/1/2 38/1/2 42/1/2
f 43/2/2 44/2/2 47/2/2
f 47/2/2 44/2/2 48/2/2
f 45/2/2 46/2/2 49/2/2
f 49/2/2 46/2/2 50/2/2
f 47/1/2 48/1/2 51/1/2
f 51/1/2 48/1/2 52/1/2
f 49/1/2 50/1/2 53/1/2
f 53/1/2 50/1/2 54/1/2
f 55/2/2 56/2/2 59/2/2
f 59/2/2 56/2/2 60/2/2
f 57/2/2 58/2/2 61/2/2
f 61/2/2 58/2/2 62/2/2
f 59/1/2 60/1/2 63/1/2
f 63/1/2 60/1/2 64/1/2
f 61/1/2 62/1/2 65/1/2
f 65/1/2 62/1/2 66/1/2
f 67/2/2 68/2/2 71/2/2
f 71/2/2 68/2/2 72/2/2
f 69/2/2 70/2/2 73/2/2
f 73/2/2 70/2/2 74/2/2
f 71/1/2 72/1/2 75/1/2
f 75/1/2 72/1/2 76/1/2
f 73/1/2 74/1/2 77/1/2
f 77/1/2 74/1/2 78/1/2
f 79/2/2 80/2/2 83/2/2
f 83/2/2 80/2/2 84/2/2
f 81/2/2 82/2/2 85/2/2
f 85/2/2 82/2/2 86/2/2
f 83/1/2 84/1/2 87/1/2
f 87/1/2 84/1/2 88/1/2
f 85/1/2 86/1/2 89/1/2
f 89/1/2 86/1/2 90/1/2
f 91/2/2 92/2/2 95/2/2
f 95/2/2 92/2/2 96/2/2
f 93/2/2 94/2/2 97/2/2
f 97/2/2 94/2/2 98/2/2
f 95/1/2 96/1/2 99/1/2
f 99/1/2 96/1/2 100/1/2
f 97/1/2 98/1/2 101/1/2
f 101/1/2 98/1/2 102/1/2
f 103/2/2 104/2/2 107/2/2
f 107/2/2 104/2/2 108/2/2
f 105/2/2 106/2/2 109/2/2
f 109/2/2 106/2/2 110/2/2
f 107/1/2 108/1/2 111/1/2
f 111/1/2 108/1/2 112/1/2
f 109/1/2 110/1/2 113/1/2
f 113/1/2 110/1/2 114/1/2
f 115/2/2 116/2/2 117/2/2
f 117/2/2 116/2/2 118/2/2
f 117/1/2 118/1/2 119/1/2
f 119/1/2 118/1/2 120/1/2
f 124/2/3 122/2/3 121/2/3
f 125/1/3 123/1/3 122/1/3
f 125/2/3 122/2/3 124/2/3
f 126/1/3 123/1/3 125/1/3
f 130/2/3 128/2/3 127/2/3
f 131/1/3 129/1/3 128/1/3
f 131/2/3 128/2/3 130/2/3
f 132/1/3 129/1/3 131/1/3
f 136/2/3 134/2/3 133/2/3
f 137/1/3 135/1/3 134/1/3
f 137/2/3 134/2/3 136/2/3
f 138/1/3 135/1/3 137/1/3
f 142/2/3 140/2/3 139/2/3
f 143/1/3 141/1/3 140/1/3
f 143/2/3 140/2/3 142/2/3
f 144/1/3 141/1/3 143/1/3
f 148/2/3 146/2/3 145/2/3
f 149/1/3 147/1/3 146/1/3
f 149/2/3 146/2/3 148/2/3
f 150/1/3 147/1/3 149/1/3
f 154/2/3 152/2/3 151/2/3
f 155/1/3 153/1/3 152/1/3
f 155/2/3 152/2/3 154/2/3
f 156/1/3 153/1/3 155/1/3
f 160/2/3 158/2/3 157/2/3
f 161/1/3 159/1/3 158/1/3
f 161/2/3 158/2/3 160/2/3
f 162/1/3 159/1/3 161/1/3
f 166/2/3 164/2/3 163/2/3
f 167/1/3 165/1/3 164/1/3
f 167/2/3 164/2/3 166/2/3
f 168/1/3 165/1/3 167/1/3
f 172/2/3 170/2/3 169/2/3
f 173/1/3 171/1/3 170/1/3
f 173/2/3 170/2/3 172/2/3
f 174/1/3 171/1/3 173/1/3
f 178/2/3 176/2/3 175/2/3
f 179/1/3 177/1/3 176/1/3
f 179/2/3 176/2/3 178/2/3
f 180/1/3 177/1/3 179/1/3
f 181/2/4 182/2/4 184/2/4
f 182/1/4 183/1/4 185/1/4
f 184/2/4 182/2/4 185/2/4
f 185/1/4 183/1/4 186/1/4
f 187/2/4 188/2/4 190/2/4
f 188/1/4 189/1/4 191/1/4
f 190/2/4 188/2/4 191/2/4
f 191/1/4 189/1/4 192/1/4
f 193/2/4 194/2/4 196/2/4
f 194/1/4 195/1/4 197/1/4
f 196/2/4 194/2/4 197/2/4
f 197/1/4 195/1/4 198/1/4
f 199/2/4 200/2/4 202/2/4
f 200/1/4 201/1/4 203/1/4
f 202/2/4 200/2/4 203/2/4
f 203/1/4 201/1/4 204/1/4
f 205/2/4 206/2/4 208/2/4
f 206/1/4 207/1/4 209/1/4
f 208/2/4 206/2/4 209/2/4
f 209/1/4 207/1/4 210/1/4
f 211/2/4 212/2/4 214/2/4
f 212/1/4 213/1/4 215/1/4
f 214/2/4 212/2/4 215/2/4
f 215/1/4 213/1/4 216/1/4
f 217/2/4 218/2/4 220/2/4
f 218/1/4 219/1/4 221/1/4
f 220/2/4 218/2/4 221/2/4
f 221/1/4 219/1/4 222/1/4
f 223/2/4 224/2/4 226/2/4
f 224/1/4 225/1/4 227/1/4
f 226/2/4 224/2/4 227/2/4
f 227/1/4 225/1/4 228/1/4
f 229/2/4 230/2/4 232/2/4
f 230/1/4 231/1/4 233/1/4
f 232/2/4 230/2/4 233/2/4
f 233/1/4 231/1/4 234/1/4
f 235/2/4 236/2/4 238/2/4
f 236/1/4 237/1/4 239/1/4
f 238/2/4 236/2/4 239/2/4
f 239/1/4 237/1/4 240/1/4
f 243/2/5 242/2/5 241/2/5
f 245/2/5 244/2/5 243/2/5
f 247/2/5 246/2/5 245/2/5
f 249/2/5 248/2/5 247/2/5
f 252/2/5 243/2/5 241/2/5
f 252/2/5 250/2/5 249/2/5
f 252/2/5 249/2/5 247/2/5
f 252/2/5 247/2/5 245/2/5
f 252/2/5 245/2/5 243/2/5
f 253/2/5 250/2/5 252/2/5
f 255/2/5 252/2/5 251/2/5
f 255/2/5 254/2/5 253/2/5
f 255/2/5 253/2/5 252/2/5
f 257/2/5 256/2/5 255/2/5
f 259/2/5 258/2/5 257/2/5
f 261/2/5 259/2/5 257/2/5
f 261/2/5 260/2/5 259/2/5
f 262/2/5 260/2/5 261/2/5
f 263/2/5 257/2/5 255/2/5
f 263/2/5 261/2/5 257/2/5
f 264/2/5 261/2/5 263/2/5
f 265/2/5 255/2/5 251/2/5
f 265/2/5 263/2/5 255/2/5
f 266/2/5 263/2/5 265/2/5
f 267/2/5 265/2/5 251/2/5
f 268/2/5 265/2/5 267/2/5
f 269/2/5 265/2/5 268/2/5
f 270/2/5 265/2/5 269/2/5
f 271/2/5 269/2/5 268/2/5
f 272/2/5 269/2/5 271/2/5
f 273/2/5 271/2/5 268/2/5
f 274/2/5 271/2/5 273/2/5
f 275/2/5 273/2/5 268/2/5
f 276/2/5 273/2/5 275/2/5
f 277/2/5 275/2/5 268/2/5
f 278/2/5 275/2/5 277/2/5
f 279/2/5 277/2/5 268/2/5
f 280/2/5 277/2/5 279/2/5
f 281/1/6 282/1/6 283/1/6
f 283/1/6 284/1/6 285/1/6
f 285/1/6 286/1/6 287/1/6
f 287/1/6 288/1/6 289/1/6
f 281/1/6 283/1/6 292/1/6
f 289/1/6 290/1/6 292/1/6
f 287/1/6 289/1/6 292/1/6
f 285/1/6 287/1/6 292/1/6
f 283/1/6 285/1/6 292/1/6
f 292/1/6 290/1/6 293/1/6
f 291/1/6 292/1/6 295/1/6
f 293/1/6 294/1/6 295/1/6
f 292/1/6 293/1/6 295/1/6
f 295/1/6 296/1/6 297/1/6
f 297/1/6 298/1/6 299/1/6
f 297/1/6 299/1/6 301/1/6
f 299/1/6 300/1/6 301/1/6
f 301/1/6 300/1/6 302/1/6
f 295/1/6 297/1/6 303/1/6
f 297/1/6 301/1/6 303/1/6
f 303/1/6 301/1/6 304/1/6
f 291/1/6 295/1/6 305/1/6
f 295/1/6 303/1/6 305/1/6
f 305/1/6 303/1/6 306/1/6
f 291/1/6 305/1/6 307/1/6
f 307/1/6 305/1/6 308/1/6
f 308/1/6 305/1/6 309/1/6
f 309/1/6 305/1/6 310/1/6
f 308/1/6 309/1/6 311/1/6
f 311/1/6 309/1/6 312/1/6
f 308/1/6 311/1/6 313/1/6
f 313/1/6 311/1/6 314/1/6
f 308/1/6 313/1/6 315/1/6
f 315/1/6 313/1/6 316/1/6
f 308/1/6 315/1/6 317/1/6
f 317/1/6 315/1/6 318/1/6
f 308/1/6 317/1/6 319/1/6
f 319/1/6 317/1/6 320/1/6
