# MagicaVoxel @ Ephtracy

# group
o 

# material
mtllib Efe.mtl
usemtl palette

# normals
vn -1 0 0
vn 1 0 0
vn 0 0 1
vn 0 0 -1
vn 0 -1 0
vn 0 1 0

# texcoords
vt 0.841797 0.5
vt 0.962891 0.5
vt 0.966797 0.5
vt 0.970703 0.5
vt 0.978516 0.5
vt 0.994141 0.5

# verts
v -0.6 0.4 -0.1
v -0.6 0.4 -0.2
v -0.6 1.9 -0.1
v -0.6 1.9 -0.2
v -0.5 0.3 -1.49012e-08
v -0.5 0.3 -0.1
v -0.5 0.4 -0.1
v -0.5 1.8 -1.49012e-08
v -0.5 1.8 -0.1
v -0.4 0.2 0.1
v -0.4 0.2 -1.49012e-08
v -0.4 0.3 -1.49012e-08
v -0.4 1.7 0.1
v -0.4 1.7 -1.49012e-08
v 0.4 0.4 -0.1
v 0.4 0.4 -0.2
v 0.4 1.8 -0.1
v 0.4 1.9 -0.1
v 0.4 1.9 -0.2
v 0.5 0.3 -1.49012e-08
v 0.5 0.3 -0.1
v 0.5 1.7 -1.49012e-08
v 0.5 1.8 -1.49012e-08
v 0.5 1.8 -0.1
v 0.6 0.2 0.1
v 0.6 0.2 -1.49012e-08
v 0.6 1.7 0.1
v 0.6 1.7 -1.49012e-08
v -0.4 0.2 0.1
v -0.4 1.7 0.1
v -0.3 1.2 0.1
v -0.3 1.5 0.1
v -0.2 0.3 0.1
v -0.2 0.4 0.1
v -0.2 1 0.1
v -0.2 1.1 0.1
v -0.2 1.2 0.1
v -0.2 1.5 0.1
v -0.1 0.3 0.1
v -0.1 0.4 0.1
v -0.1 0.5 0.1
v -0.1 0.6 0.1
v -0.1 0.8 0.1
v -0.1 1 0.1
v -0.1 1.1 0.1
v -0.1 1.2 0.1
v -0.1 1.4 0.1
v -0.1 1.6 0.1
v 0 0.6 0.1
v 0 0.8 0.1
v 0 1 0.1
v 0 1.1 0.1
v 0 1.2 0.1
v 0 1.4 0.1
v 0 1.6 0.1
v 0.1 0.6 0.1
v 0.1 0.8 0.1
v 0.1 1 0.1
v 0.1 1.1 0.1
v 0.2 0.3 0.1
v 0.2 0.4 0.1
v 0.2 0.5 0.1
v 0.2 0.6 0.1
v 0.2 0.8 0.1
v 0.2 1.1 0.1
v 0.2 1.6 0.1
v 0.3 0.3 0.1
v 0.3 0.4 0.1
v 0.3 0.8 0.1
v 0.3 1 0.1
v 0.3 1.1 0.1
v 0.3 1.3 0.1
v 0.3 1.4 0.1
v 0.3 1.5 0.1
v 0.4 0.7 0.1
v 0.4 0.8 0.1
v 0.4 0.9 0.1
v 0.4 1 0.1
v 0.4 1.3 0.1
v 0.4 1.4 0.1
v 0.5 0.7 0.1
v 0.5 0.9 0.1
v 0.5 1.5 0.1
v 0.5 1.6 0.1
v 0.6 0.2 0.1
v 0.6 1.7 0.1
v -0.5 0.3 -1.49012e-08
v -0.5 1.8 -1.49012e-08
v -0.4 0.3 -1.49012e-08
v -0.4 1.7 -1.49012e-08
v 0.5 1.7 -1.49012e-08
v 0.5 1.8 -1.49012e-08
v -0.6 0.4 -0.1
v -0.6 1.9 -0.1
v -0.5 0.4 -0.1
v -0.5 1.8 -0.1
v 0.4 1.8 -0.1
v 0.4 1.9 -0.1
v -0.4 0.2 -1.49012e-08
v -0.4 0.3 -1.49012e-08
v 0.5 0.3 -1.49012e-08
v 0.5 1.7 -1.49012e-08
v 0.6 0.2 -1.49012e-08
v 0.6 1.7 -1.49012e-08
v -0.5 0.3 -0.1
v -0.5 0.4 -0.1
v 0.4 0.4 -0.1
v 0.4 1.8 -0.1
v 0.5 0.3 -0.1
v 0.5 1.8 -0.1
v -0.6 0.4 -0.2
v -0.6 1.9 -0.2
v 0.4 0.4 -0.2
v 0.4 1.9 -0.2
v -0.4 0.2 0.1
v 0.6 0.2 0.1
v -0.4 0.2 -1.49012e-08
v 0.6 0.2 -1.49012e-08
v -0.5 0.3 -1.49012e-08
v -0.4 0.3 -1.49012e-08
v 0.5 0.3 -1.49012e-08
v -0.5 0.3 -0.1
v 0.5 0.3 -0.1
v -0.6 0.4 -0.1
v -0.5 0.4 -0.1
v 0.4 0.4 -0.1
v -0.6 0.4 -0.2
v 0.4 0.4 -0.2
v -0.4 1.7 0.1
v 0.6 1.7 0.1
v -0.4 1.7 -1.49012e-08
v 0.5 1.7 -1.49012e-08
v 0.6 1.7 -1.49012e-08
v -0.5 1.8 -1.49012e-08
v 0.5 1.8 -1.49012e-08
v -0.5 1.8 -0.1
v 0.4 1.8 -0.1
v 0.5 1.8 -0.1
v -0.6 1.9 -0.1
v 0.4 1.9 -0.1
v -0.6 1.9 -0.2
v 0.4 1.9 -0.2

# faces
f 3/4/1 2/4/1 1/4/1
f 4/4/1 2/4/1 3/4/1
f 7/3/1 6/3/1 5/3/1
f 8/3/1 7/3/1 5/3/1
f 9/3/1 7/3/1 8/3/1
f 12/2/1 11/2/1 10/2/1
f 13/2/1 12/2/1 10/2/1
f 14/2/1 12/2/1 13/2/1
f 15/4/2 16/4/2 17/4/2
f 17/4/2 16/4/2 18/4/2
f 18/4/2 16/4/2 19/4/2
f 20/3/2 21/3/2 22/3/2
f 22/3/2 21/3/2 23/3/2
f 23/3/2 21/3/2 24/3/2
f 25/2/2 26/2/2 27/2/2
f 27/2/2 26/2/2 28/2/2
f 31/2/3 30/2/3 29/2/3
f 32/2/3 30/2/3 31/2/3
f 33/2/3 31/2/3 29/2/3
f 34/2/3 31/2/3 33/2/3
f 35/2/3 31/2/3 34/2/3
f 36/2/3 31/2/3 35/2/3
f 37/5/3 32/5/3 31/5/3
f 37/2/3 31/2/3 36/2/3
f 38/2/3 30/2/3 32/2/3
f 38/5/3 32/5/3 37/5/3
f 39/2/3 33/2/3 29/2/3
f 39/6/3 34/6/3 33/6/3
f 40/2/3 35/2/3 34/2/3
f 40/6/3 34/6/3 39/6/3
f 41/2/3 35/2/3 40/2/3
f 42/2/3 35/2/3 41/2/3
f 43/2/3 35/2/3 42/2/3
f 44/5/3 36/5/3 35/5/3
f 44/2/3 35/2/3 43/2/3
f 45/2/3 37/2/3 36/2/3
f 45/5/3 36/5/3 44/5/3
f 45/2/3 38/2/3 37/2/3
f 46/2/3 38/2/3 45/2/3
f 47/2/3 38/2/3 46/2/3
f 48/2/3 30/2/3 38/2/3
f 48/2/3 38/2/3 47/2/3
f 49/6/3 43/6/3 42/6/3
f 49/2/3 42/2/3 41/2/3
f 50/2/3 44/2/3 43/2/3
f 50/6/3 43/6/3 49/6/3
f 50/2/3 45/2/3 44/2/3
f 51/2/3 45/2/3 50/2/3
f 52/5/3 46/5/3 45/5/3
f 52/2/3 45/2/3 51/2/3
f 53/2/3 47/2/3 46/2/3
f 53/5/3 46/5/3 52/5/3
f 54/5/3 48/5/3 47/5/3
f 54/2/3 47/2/3 53/2/3
f 55/2/3 30/2/3 48/2/3
f 55/5/3 48/5/3 54/5/3
f 56/2/3 49/2/3 41/2/3
f 56/2/3 51/2/3 50/2/3
f 56/2/3 50/2/3 49/2/3
f 57/2/3 51/2/3 56/2/3
f 58/5/3 52/5/3 51/5/3
f 58/2/3 51/2/3 57/2/3
f 59/2/3 54/2/3 53/2/3
f 59/5/3 52/5/3 58/5/3
f 59/2/3 53/2/3 52/2/3
f 59/2/3 55/2/3 54/2/3
f 60/2/3 39/2/3 29/2/3
f 60/2/3 40/2/3 39/2/3
f 61/6/3 41/6/3 40/6/3
f 61/2/3 40/2/3 60/2/3
f 62/2/3 56/2/3 41/2/3
f 62/6/3 41/6/3 61/6/3
f 63/6/3 57/6/3 56/6/3
f 63/2/3 56/2/3 62/2/3
f 64/2/3 58/2/3 57/2/3
f 64/6/3 57/6/3 63/6/3
f 64/2/3 59/2/3 58/2/3
f 65/2/3 55/2/3 59/2/3
f 65/2/3 59/2/3 64/2/3
f 66/2/3 30/2/3 55/2/3
f 66/2/3 55/2/3 65/2/3
f 67/6/3 61/6/3 60/6/3
f 67/2/3 60/2/3 29/2/3
f 68/2/3 65/2/3 64/2/3
f 68/6/3 61/6/3 67/6/3
f 68/2/3 63/2/3 62/2/3
f 68/2/3 62/2/3 61/2/3
f 68/2/3 64/2/3 63/2/3
f 69/2/3 65/2/3 68/2/3
f 70/2/3 65/2/3 69/2/3
f 71/1/3 66/1/3 65/1/3
f 71/2/3 65/2/3 70/2/3
f 72/1/3 66/1/3 71/1/3
f 73/1/3 66/1/3 72/1/3
f 74/1/3 66/1/3 73/1/3
f 75/2/3 68/2/3 67/2/3
f 75/2/3 69/2/3 68/2/3
f 76/5/3 70/5/3 69/5/3
f 76/2/3 69/2/3 75/2/3
f 77/5/3 70/5/3 76/5/3
f 78/2/3 71/2/3 70/2/3
f 78/5/3 70/5/3 77/5/3
f 78/2/3 72/2/3 71/2/3
f 79/1/3 73/1/3 72/1/3
f 79/2/3 72/2/3 78/2/3
f 80/2/3 74/2/3 73/2/3
f 80/1/3 73/1/3 79/1/3
f 81/2/3 75/2/3 67/2/3
f 81/5/3 77/5/3 76/5/3
f 81/5/3 76/5/3 75/5/3
f 82/2/3 79/2/3 78/2/3
f 82/5/3 77/5/3 81/5/3
f 82/2/3 80/2/3 79/2/3
f 82/2/3 78/2/3 77/2/3
f 83/2/3 74/2/3 80/2/3
f 83/2/3 80/2/3 82/2/3
f 83/1/3 66/1/3 74/1/3
f 84/2/3 30/2/3 66/2/3
f 84/1/3 66/1/3 83/1/3
f 85/2/3 67/2/3 29/2/3
f 85/2/3 82/2/3 81/2/3
f 85/2/3 84/2/3 83/2/3
f 85/2/3 81/2/3 67/2/3
f 85/2/3 83/2/3 82/2/3
f 86/2/3 30/2/3 84/2/3
f 86/2/3 84/2/3 85/2/3
f 89/3/3 88/3/3 87/3/3
f 90/3/3 88/3/3 89/3/3
f 91/3/3 88/3/3 90/3/3
f 92/3/3 88/3/3 91/3/3
f 95/4/3 94/4/3 93/4/3
f 96/4/3 94/4/3 95/4/3
f 97/4/3 94/4/3 96/4/3
f 98/4/3 94/4/3 97/4/3
f 99/2/4 100/2/4 101/2/4
f 99/2/4 101/2/4 103/2/4
f 101/2/4 102/2/4 103/2/4
f 103/2/4 102/2/4 104/2/4
f 105/3/4 106/3/4 107/3/4
f 105/3/4 107/3/4 109/3/4
f 107/3/4 108/3/4 109/3/4
f 109/3/4 108/3/4 110/3/4
f 111/4/4 112/4/4 113/4/4
f 113/4/4 112/4/4 114/4/4
f 117/2/5 116/2/5 115/2/5
f 118/2/5 116/2/5 117/2/5
f 122/3/5 120/3/5 119/3/5
f 122/3/5 121/3/5 120/3/5
f 123/3/5 121/3/5 122/3/5
f 127/4/5 125/4/5 124/4/5
f 127/4/5 126/4/5 125/4/5
f 128/4/5 126/4/5 127/4/5
f 129/2/6 130/2/6 131/2/6
f 131/2/6 130/2/6 132/2/6
f 132/2/6 130/2/6 133/2/6
f 134/3/6 135/3/6 136/3/6
f 136/3/6 135/3/6 137/3/6
f 137/3/6 135/3/6 138/3/6
f 139/4/6 140/4/6 141/4/6
f 141/4/6 140/4/6 142/4/6
